<svg version="1.2" baseProfile="tiny-ps" xmlns="http://www.w3.org/2000/svg" viewBox="0 0 20 20" width="48" height="48"><title>english-svg</title><style>tspan { white-space:pre }.shp0 { fill: #ffffff } </style><path fill-rule="evenodd" class="shp0" d="M6 1L14 1C16.76 1 19 3.24 19 6L19 14C19 16.76 16.76 19 14 19L6 19C3.24 19 1 16.76 1 14L1 6C1 3.24 3.24 1 6 1ZM5.05 16L6.55 16L7.69 12.42L11.98 12.42L13.1 16L14.66 16L10.68 4.26L9.03 4.26L5.05 16ZM8.63 9.44C9.05 8.11 9.43 6.85 9.8 5.47L9.86 5.47C10.25 6.83 10.62 8.11 11.05 9.44L11.61 11.23L8.06 11.23L8.63 9.44Z" /></svg>
