<svg version="1.2" baseProfile="tiny-ps" xmlns="http://www.w3.org/2000/svg" viewBox="0 0 20 20" width="48" height="48"><title>english-svg</title><style>tspan { white-space:pre }.shp0 { fill: #ffffff } </style><path fill-rule="evenodd" class="shp0" d="M6 1L14 1C16.76 1 19 3.24 19 6L19 14C19 16.76 16.76 19 14 19L6 19C3.24 19 1 16.76 1 14L1 6C1 3.24 3.24 1 6 1ZM9.61 4.91L8.43 4.88C8.45 5.05 8.42 5.3 8.4 5.56C8.38 5.86 8.33 6.23 8.29 6.63C7.97 6.65 7.66 6.65 7.34 6.65C6.74 6.65 5.52 6.55 5.03 6.47L5.06 7.52C5.63 7.56 6.72 7.61 7.33 7.61C7.61 7.61 7.89 7.61 8.18 7.6C8.12 8.26 8.05 8.96 8.03 9.66C6.09 10.55 4.53 12.39 4.53 14.19C4.53 15.38 5.25 15.96 6.18 15.96C6.95 15.96 7.79 15.65 8.56 15.19C8.63 15.47 8.7 15.73 8.78 15.97L9.79 15.66C9.68 15.31 9.57 14.94 9.45 14.53C10.64 13.52 11.78 11.97 12.58 9.98C13.88 10.36 14.59 11.31 14.59 12.37C14.59 14.19 13.02 15.5 10.49 15.76L11.09 16.7C14.34 16.18 15.67 14.45 15.67 12.43C15.67 10.89 14.63 9.6 12.88 9.14C12.88 9.11 12.9 9.1 12.9 9.08C12.97 8.86 13.09 8.48 13.18 8.29L12.07 8.01C12.06 8.24 11.99 8.61 11.92 8.82C11.9 8.87 11.89 8.92 11.88 8.96C11.71 8.94 11.54 8.94 11.36 8.94C10.64 8.94 9.79 9.07 9.01 9.29C9.05 8.71 9.09 8.12 9.16 7.57C10.87 7.49 12.73 7.29 14.2 7.04L14.19 6C12.76 6.34 11.05 6.52 9.27 6.61C9.33 6.2 9.38 5.84 9.44 5.54C9.48 5.35 9.54 5.09 9.61 4.91ZM8.96 10.85C8.96 10.65 8.96 10.47 8.98 10.27C9.62 10.04 10.43 9.83 11.34 9.83C11.43 9.83 11.51 9.83 11.58 9.83C10.99 11.39 10.14 12.53 9.2 13.41C9.06 12.6 8.96 11.74 8.96 10.85ZM5.59 14.01C5.59 12.86 6.63 11.48 7.98 10.71C7.98 10.79 7.98 10.88 7.98 10.96C7.98 12.01 8.12 13.14 8.32 14.14C7.61 14.64 6.93 14.88 6.39 14.88C5.86 14.88 5.59 14.59 5.59 14.01Z" /></svg>
