<svg version="1.2" baseProfile="tiny-ps" xmlns="http://www.w3.org/2000/svg" viewBox="0 0 20 20" width="48" height="48"><title>english-svg</title><style>tspan { white-space:pre }.shp0 { fill: #ffffff } </style><path fill-rule="evenodd" class="shp0" d="M6 1L14 1C16.76 1 19 3.24 19 6L19 14C19 16.76 16.76 19 14 19L6 19C3.24 19 1 16.76 1 14L1 6C1 3.24 3.24 1 6 1ZM10.5 5.77L10.5 3.28L9.43 3.28L9.43 5.77L4.4 5.77L4.4 12.4L5.42 12.4L5.42 11.53L9.43 11.53L9.43 16.06L10.5 16.06L10.5 11.53L14.52 11.53L14.52 12.33L15.59 12.33L15.59 5.77L10.5 5.77ZM5.42 10.51L5.42 6.8L9.43 6.8L9.43 10.51L5.42 10.51ZM10.5 10.51L10.5 6.8L14.52 6.8L14.52 10.51L10.5 10.51Z" /></svg>
