<svg version="1.2" baseProfile="tiny-ps" xmlns="http://www.w3.org/2000/svg" viewBox="0 0 18 18" width="48" height="48"><title>volume_high-svg</title><style>tspan { white-space:pre }.shp0 { fill: none } .shp1 { fill: #ffffff } </style><path class="shp0" d="M-3 -3L21 -3L21 21L-3 21L-3 -3Z" /><path fill-rule="evenodd" class="shp1" d="M11 0.23C15 1.14 18 4.72 18 9C18 13.28 15 16.86 11 17.77L11 15.7C13.89 14.84 16 12.17 16 9C16 5.83 13.89 3.15 11 2.29C11 2.29 11 0.23 11 0.23ZM11 13L11 4.97C12.5 5.71 13.5 7.23 13.5 9C13.5 10.76 12.5 12.29 11 13ZM4 6L9 1L9 17L4 12L0 12L0 6L4 6Z" /></svg>
