<svg version="1.2" baseProfile="tiny-ps" xmlns="http://www.w3.org/2000/svg" viewBox="0 0 24 24" width="24" height="24"><title>New Project</title><style>tspan { white-space:pre }</style><path fill="#ffffff" aria-label=""  d="M16.07 6.12Q14.39 5.14 12.41 5.14Q10.43 5.14 8.75 6.12Q7.08 7.1 6.1 8.77Q5.13 10.45 5.13 12.43Q5.13 14.41 6.1 16.08Q7.08 17.76 8.75 18.74Q10.43 19.71 12.41 19.71Q14.39 19.71 16.07 18.74Q17.74 17.76 18.72 16.08Q19.7 14.41 19.7 12.43Q19.7 10.45 18.72 8.77Q17.74 7.1 16.07 6.12ZM21.32 7.27Q22.7 9.63 22.7 12.43Q22.7 15.23 21.32 17.6Q19.94 19.96 17.57 21.33Q15.21 22.71 12.41 22.71Q9.61 22.71 7.24 21.33Q4.88 19.96 3.5 17.6Q2.13 15.23 2.13 12.43Q2.13 9.63 3.5 7.27Q4.88 4.9 7.24 3.52Q9.61 2.14 12.41 2.14Q15.21 2.14 17.57 3.52Q19.94 4.9 21.32 7.27Z" /></svg>